<svg xmlns:xlink="http://www.w3.org/1999/xlink" xmlns="http://www.w3.org/2000/svg" width="195" height="66"
		 viewBox="0 0 195 66">
	<defs>
		<path id="a" d="M.011.07h7.15v11.518H.01z"/>
		<path id="c" d="M.094.02H20.17v11.86H.094z"/>
	</defs>
	<g fill="none" fill-rule="evenodd">
		<path fill="#74C660" fill-rule="nonzero"
					d="M12.485 36.68c-3.188 0-5.865-.715-8.033-2.144C2.285 33.107.801 31.124 0 28.588l6.639-2.018c.483 1.208 1.227 2.128 2.232 2.763 1.004.634 2.209.95 3.614.95 1.133 0 2.08-.286 2.843-.859.763-.573 1.144-1.348 1.144-2.327 0-.534-.18-1.023-.543-1.467-.363-.443-.846-.825-1.45-1.146a19.243 19.243 0 0 0-2.096-.94c-.793-.305-1.624-.622-2.493-.951a53.374 53.374 0 0 1-2.605-1.066c-.869-.382-1.7-.852-2.493-1.41a12.097 12.097 0 0 1-2.096-1.857c-.604-.68-1.087-1.524-1.45-2.533-.362-1.008-.544-2.116-.544-3.323 0-2.018.506-3.76 1.518-5.227 1.013-1.467 2.353-2.56 4.022-3.278 1.67-.718 3.554-1.077 5.654-1.077 3.157 0 5.71.683 7.658 2.051 1.949 1.368 3.308 3.328 4.078 5.88l-6.91 1.971c-.378-1.085-.982-1.94-1.813-2.567a4.581 4.581 0 0 0-2.832-.94c-1.088 0-1.979.271-2.674.814-.695.542-1.042 1.287-1.042 2.235 0 .734.29 1.383.872 1.948.582.566 1.337 1.047 2.266 1.445.929.397 1.956.79 3.082 1.18 1.125.39 2.25.852 3.376 1.387a18.532 18.532 0 0 1 3.081 1.834c.93.688 1.684 1.597 2.266 2.728.581 1.13.872 2.422.872 3.874 0 3.056-1.065 5.49-3.195 7.301s-4.962 2.717-8.496 2.717zm19.47-28.215c-1.151 0-2.148-.372-2.99-1.114C28.12 6.61 27.7 5.578 27.7 4.257c0-1.354.417-2.402 1.252-3.144S30.787 0 31.954 0c1.2 0 2.212.371 3.039 1.113s1.24 1.79 1.24 3.144c0 1.337-.413 2.373-1.24 3.107s-1.84 1.1-3.039 1.1zm-3.512 26.804V9.875h7.11V35.27h-7.11zm14.22 0V10.462h7.029v2.368c.742-.887 1.69-1.602 2.841-2.143 1.152-.541 2.409-.812 3.77-.812 2.675 0 4.863.842 6.564 2.526 1.7 1.684 2.551 3.917 2.551 6.698v16.17h-7.214V20.768c0-1.278-.394-2.297-1.182-3.056-.79-.76-1.779-1.139-2.97-1.139-1.175 0-2.164.391-2.968 1.173-.804.782-1.206 1.834-1.206 3.157V35.27h-7.214zm40.953-6.177c2.75 0 4.908.642 6.474 1.926 1.566 1.284 2.349 3.02 2.349 5.205 0 1.254-.249 2.408-.745 3.463-.497 1.055-1.245 1.995-2.246 2.82-1 .826-2.341 1.472-4.022 1.939-1.68.466-3.628.699-5.843.699-2.093 0-3.991-.283-5.695-.848-1.703-.566-3.067-1.41-4.09-2.534-1.024-1.124-1.536-2.443-1.536-3.956 0-.841.226-1.663.676-2.465a7.58 7.58 0 0 1 1.776-2.122c-1.222-1.04-1.833-2.37-1.833-3.99 0-1.009.286-1.995.86-2.958.572-.963 1.378-1.735 2.417-2.316-1.65-1.56-2.475-3.517-2.475-5.87 0-2.493.955-4.538 2.865-6.135 1.91-1.598 4.407-2.397 7.493-2.397 1.864 0 3.46.26 4.79.78.687-.948 1.03-2.04 1.03-3.28h5.821c0 2.248-1.046 4.19-3.14 5.826 1.254 1.437 1.88 3.172 1.88 5.205 0 2.523-.955 4.594-2.865 6.215-1.91 1.62-4.415 2.43-7.516 2.43-1.467 0-2.857-.198-4.17-.596-.428.382-.642.818-.642 1.307 0 .474.187.868.561 1.181.374.314.89.47 1.547.47h6.279zm-3.3-13.574c-1.12 0-1.988.316-2.601.947-.613.632-.92 1.471-.92 2.518 0 1.08.307 1.948.92 2.604.613.657 1.48.985 2.602.985 1.106 0 1.981-.332 2.624-.997s.965-1.529.965-2.592c0-1.03-.322-1.865-.965-2.505-.643-.64-1.518-.96-2.624-.96zm-.26 23.983c1.496 0 2.749-.22 3.758-.66 1.01-.439 1.514-1.077 1.514-1.913 0-.497-.174-.897-.523-1.202-.348-.305-.813-.457-1.394-.457h-7.537c-.334.539-.501 1.035-.501 1.488 0 .894.414 1.574 1.242 2.042.827.468 1.975.702 3.441.702zm21.42-2.821c-2.158 0-3.967-.69-5.426-2.07-1.46-1.379-2.19-3.262-2.19-5.649 0-2.541.967-4.525 2.9-5.951 1.933-1.426 4.46-2.139 7.581-2.139h3.773v-1.395c0-1.022-.295-1.832-.885-2.429-.59-.597-1.359-.895-2.306-.895-.792 0-1.482.233-2.072.697a4.084 4.084 0 0 0-1.305 1.814l-6.73-1.744c.186-.542.438-1.104.756-1.685.319-.581.769-1.201 1.351-1.86.583-.659 1.23-1.24 1.945-1.744.714-.503 1.595-.922 2.643-1.255 1.048-.333 2.17-.5 3.366-.5 3.183 0 5.745.845 7.685 2.534 1.941 1.69 2.912 4.076 2.912 7.16v8.253c0 3.642.38 6.386 1.14 8.23h-7.685a6.598 6.598 0 0 1-.629-2.627c-.59.976-1.486 1.763-2.69 2.36-1.203.596-2.58.895-4.134.895zm2.46-7.054c1.077 0 2.037-.278 2.88-.835.844-.556 1.266-1.245 1.266-2.066v-1.331h-3.543c-1.19 0-2.081.195-2.676.586-.594.39-.892.937-.892 1.639 0 .596.286 1.08.856 1.45.57.371 1.274.557 2.11.557zm18.367 14.107v-33.28h7.084v2.686c.44-.888 1.203-1.654 2.289-2.298 1.086-.644 2.35-.966 3.792-.966 1.321 0 2.551.267 3.69.8 1.139.532 2.153 1.313 3.04 2.342.89 1.029 1.588 2.372 2.096 4.03.51 1.657.763 3.537.763 5.639 0 2.102-.254 3.981-.763 5.64-.508 1.657-1.207 3-2.095 4.029-.888 1.028-1.902 1.806-3.04 2.33-1.14.526-2.37.79-3.69.79-1.276 0-2.445-.253-3.508-.756-1.063-.503-1.921-1.132-2.574-1.887v10.901h-7.084zm11.366-14.107c2.852 0 4.278-2.344 4.278-7.03 0-4.719-1.426-7.078-4.278-7.078-2.837 0-4.255 2.36-4.255 7.077 0 4.687 1.418 7.03 4.255 7.03zm22.871 7.054c-2.429 0-4.476-.8-6.14-2.4-1.666-1.6-2.498-3.662-2.498-6.185V11.286h7.08v15.502c0 1.157.336 2.062 1.008 2.715.673.654 1.513.98 2.521.98 1.085 0 2.036-.394 2.853-1.183.817-.788 1.226-1.851 1.226-3.188V11.286h7.08v16.899c0 2.824.329 5.453.986 7.886h-6.99a9.398 9.398 0 0 1-.503-2.343c-.657.871-1.6 1.58-2.83 2.13a9.222 9.222 0 0 1-3.793.822zm19.804-1.411V10.417h7.178v2.734a6.359 6.359 0 0 1 2.585-2.429c1.093-.564 2.3-.847 3.624-.847 2.047 0 3.747.49 5.101 1.469l-2.747 6.438a5.575 5.575 0 0 0-3.554-1.242c-1.37 0-2.547.535-3.531 1.604-.985 1.07-1.478 2.462-1.478 4.18v12.945h-7.178z"/>
		<g transform="translate(87.912 50.1)">
			<mask id="b" fill="#fff">
				<use xlink:href="#a"/>
			</mask>
			<path fill="#050E14" d="M0 11.588h7.16V8.963H2.686V.07H0v11.519" mask="url(#b)"/>
		</g>
		<path fill="#050E14" d="M99.073 52.519v1.965h3.754v2.35h-3.754v2.505h4.618v2.35h-7.305V50.17h7.337v2.35h-4.65"/>
		<g transform="translate(105.072 49.896)">
			<mask id="d" fill="#fff">
				<use xlink:href="#c"/>
			</mask>
			<path fill="#050E14"
						d="M9.075 11.793l-2.567-5.03h.005C7.72 6.36 8.61 4.994 8.615 3.407A3.118 3.118 0 0 0 5.47.275H.094v11.518H2.78V2.468h1.732c.774 0 1.398.653 1.395 1.464-.003.812-.632 1.468-1.404 1.468h-1.58l3.263 6.393h2.888M14.837 2.308c-1.682 0-2.428 1.415-2.436 3.642-.008 2.227.729 3.64 2.41 3.641 1.683 0 2.43-1.415 2.437-3.642.009-2.226-.729-3.641-2.41-3.64zM14.846.02c3.315 0 5.336 2.555 5.325 5.929-.012 3.375-2.052 5.93-5.367 5.931-3.316 0-5.338-2.556-5.326-5.93C9.491 2.575 11.53.019 14.846.02z"
						mask="url(#d)"/>
		</g>
		<path fill="#050E14"
					d="M130.881 57.2l3.342-7.03h-2.962l-1.699 4.29-.024.033h-.005l-.024-.033-1.7-4.29h-2.96l3.34 7.03v4.489h2.692v-4.49M147.006 61.69l2.176-6.631v6.63h2.464V50.171h-3.463l-1.965 6.433-1.965-6.433h-3.463v11.518h2.464v-6.63l2.176 6.63h1.576M188.41 50.17l3.945 7.935v.006-7.94h2.464v11.518h-3.259l-4.362-7.878v-.008 7.886h-2.464V50.171h3.677M172.001 61.69h7.16v-2.625h-4.474v-8.894h-2.686v11.518M180.604 61.69h2.687V50.17h-2.687zM170.85 61.69l-2.568-5.03h.006c1.207-.403 2.096-1.77 2.102-3.357a3.118 3.118 0 0 0-3.145-3.131h-5.376v11.517h2.686v-9.324h1.733c.773 0 1.398.652 1.395 1.464-.003.812-.632 1.468-1.404 1.468h-1.58l3.263 6.392h2.887M155.775 52.52v1.965h3.755v2.35h-3.755v2.505h4.619v2.35h-7.305V50.17h7.337v2.35h-4.65"/>
		<path fill="#202020" fill-rule="nonzero"
					d="M74.216 61.677c-.433 0-.794-.088-1.084-.264-.29-.176-.484-.394-.58-.653a2.38 2.38 0 0 1-.134.76h-1.77a7.68 7.68 0 0 0 .163-.995c.043-.396.064-.718.064-.966V52.61h1.804v3.028c.128-.17.326-.321.595-.452.269-.132.583-.198.942-.198.34 0 .659.07.955.212.295.141.555.345.78.612.224.267.401.608.53 1.024.13.416.195.88.195 1.395 0 1.063-.218 1.904-.653 2.52-.435.617-1.037.926-1.807.926zm-.464-1.572c.72 0 1.08-.59 1.08-1.77 0-1.187-.36-1.78-1.08-1.78-.715 0-1.073.593-1.073 1.78 0 1.18.358 1.77 1.073 1.77zm7.93-4.966h1.891l-2.175 6.358c-.151.445-.356.83-.615 1.157-.26.327-.557.586-.893.777a4.085 4.085 0 0 1-1.074.424c-.379.09-.785.136-1.218.136l-.11-1.618c.924 0 1.586-.25 1.984-.749l-2.54-6.485h1.971l1.474 4.043 1.305-4.043z"/>
		<path fill="#74C660" d="M17.5 61.6h29L32 47.6z"/>
	</g>
</svg>
